{"title":"Pet Sematary 1989 720p Brrip X264 SSloco","uid":11984769,"size":1090099764,"categoryP":"video","categoryS":"hd___movies","magnet":"?xt=urn:btih:08a44e98114182245324c7bdb6ecaa4aaf462689&amp;dn=Pet+Sematary+1989+720p+Brrip+X264+SSloco&amp;tr=udp%3A%2F%2Ftracker.openbittorrent.com%3A80&amp;tr=udp%3A%2F%2Fopen.demonii.com%3A1337&amp;tr=udp%3A%2F%2Ftracker.coppersurfer.tk%3A6969&amp;tr=udp%3A%2F%2Fexodus.desync.com%3A6969","seeders":1,"leechers":0,"uploader":"myhoes14","files":1,"time":1433323558,"description":"Source:Pet.Sematary.1989.1080p.BluRay.X264-AMIABLE\n\nEncoder Notes: I was forced to use handbrake on this encode ,,megui kept on crashing,..the video took 13 hours to encode\n\n\nMedia Info\n\nFormat : MPEG-4\nFormat profile : Base Media\nCodec ID : isom\nFile size : 1.02 GiB\nDuration : 1h 42mn\nOverall bit rate mode : Variable\nOverall bit rate : 1 414 Kbps\nEncoded date : UTC 2015-04-25 07:49:06\nTagged date : UTC 2015-04-25 07:49:06\n\nVideo\nID : 1\nFormat : AVC\nFormat/Info : Advanced Video Codec\nFormat profile : &lt;a class=&quot;__cf_email__&quot; href=&quot;/cdn-cgi/l/email-protection&quot; data-cfemail=&quot;fab2939d92bab6ced4cb&quot;&gt;[email&amp;#160;protected]&lt;/a&gt;&lt;script data-cfhash='f9e31' type=&quot;text/javascript&quot;&gt;\n/* &lt;![CDATA[ */!function(){try{var t=&quot;currentScript&quot;in document?document.currentScript:function(){for(var t=document.getElementsByTagName(&quot;script&quot;),e=t.length;e--;)if(t[e].getAttribute(&quot;data-cfhash&quot;))return t[e]}();if(t&amp;&amp;t.previousSibling){var e,r,n,i,c=t.previousSibling,a=c.getAttribute(&quot;data-cfemail&quot;);if(a){for(e=&quot;&quot;,r=parseInt(a.substr(0,2),16),n=2;a.length-n;n+=2)i=parseInt(a.substr(n,2),16)^r,e+=String.fromCharCode(i);e=document.createTextNode(e),c.parentNode.replaceChild(e,c)}t.parentNode.removeChild(t);}}catch(u){}}()/* ]]&gt; */&lt;/script&gt;\nFormat settings, CABAC : Yes\nFormat settings, ReFrames : 4 frames\nCodec ID : avc1\nCodec ID/Info : Advanced Video Coding\nDuration : 1h 42mn\nBit rate : 1 223 Kbps\nMaximum bit rate : 6 332 Kbps\nWidth : 1 280 pixels\nHeight : 720 pixels\nDisplay aspect ratio : 16:9\nFrame rate mode : Constant\nFrame rate : 23.976 fps\nColor space : YUV\nChroma subsampling : 4:2:0\nBit depth : 8 bits\nScan type : Progressive\nBits/(Pixel*Frame) : 0.055\nStream size : 899 MiB (86%)\nWriting library : x264 core 142 r2479 dd79a61\nEncoding settings : cabac=1 / ref=4 / deblock=1:-1:-1 / analyse=0x3:0x133 / me=umh / subme=10 / psy=1 / psy_rd=1.00:0.15 / mixed_ref=1 / me_range=64 / chroma_me=1 / trellis=2 / 8x8dct=1 / cqm=0 / deadzone=21,11 / fast_pskip=1 / chroma_qp_offset=-3 / threads=6 / lookahead_threads=1 / sliced_threads=0 / nr=0 / decimate=1 / interlaced=0 / bluray_compat=0 / constrained_intra=0 / bframes=8 / b_pyramid=2 / b_adapt=2 / b_bias=0 / direct=3 / weightb=1 / open_gop=0 / weightp=2 / keyint=240 / keyint_min=24 / scenecut=40 / intra_refresh=0 / rc_lookahead=60 / rc=2pass / mbtree=1 / bitrate=1223 / ratetol=1.0 / qcomp=0.60 / qpmin=0 / qpmax=69 / qpstep=4 / cplxblur=20.0 / qblur=0.5 / vbv_maxrate=62500 / vbv_bufsize=78125 / nal_hrd=none / filler=0 / ip_ratio=1.40 / aq=1:1.00\nEncoded date : UTC 2015-04-25 07:49:06\nTagged date : UTC 2015-04-25 07:55:26\nColor primaries : BT.709\nTransfer characteristics : BT.709\nMatrix coefficients : BT.709\nColor range : Limited\n\nAudio\nID : 2\nFormat : AAC\nFormat/Info : Advanced Audio Codec\nFormat profile : HE-AAC / LC\nCodec ID : 40\nDuration : 1h 42mn\nBit rate mode : Variable\nBit rate : 192 Kbps\nMaximum bit rate : 249 Kbps\nChannel(s) : 6 channels\nChannel positions : Front: L C R, Side: L R, LFE\nSampling rate : 48.0 KHz / 24.0 KHz\nCompression mode : Lossy\nStream size : 139 MiB (13%)\nLanguage : English\nEncoded date : UTC 2015-04-25 07:36:40\nTagged date : UTC 2015-04-25 07:55:26\n\nMenu\n00:00:00.000 : 00:00:00.000\n00:03:04.184 : 00:03:04.184\n00:09:57.889 : 00:09:57.889\n00:17:25.127 : 00:17:25.127\n00:25:07.256 : 00:25:07.256\n00:33:45.941 : 00:33:45.941\n00:40:50.531 : 00:40:50.531\n00:44:18.698 : 00:44:18.698\n00:47:38.522 : 00:47:38.522\n00:53:32.543 : 00:53:32.543\n01:00:08.939 : 01:00:08.939\n01:09:11.939 : 01:09:11.939\n01:16:45.100 : 01:16:45.100\n01:21:37.976 : 01:21:37.976\n01:26:33.063 : 01:26:33.063\n01:28:28.470 : 01:28:28.470\n01:30:20.248 : 01:30:20.248\n01:35:37.899 : 01:35:37.899\n01:39:35.595 : 01:39:35.595","torrent":{"xt":"urn:btih:08a44e98114182245324c7bdb6ecaa4aaf462689","amp;dn":"Pet+Sematary+1989+720p+Brrip+X264+SSloco","amp;tr":["udp%3A%2F%2Ftracker.openbittorrent.com%3A80","udp%3A%2F%2Fopen.demonii.com%3A1337","udp%3A%2F%2Ftracker.coppersurfer.tk%3A6969","udp%3A%2F%2Fexodus.desync.com%3A6969"],"infoHash":"08a44e98114182245324c7bdb6ecaa4aaf462689","infoHashBuffer":{"type":"Buffer","data":[8,164,78,152,17,65,130,36,83,36,199,189,182,236,170,74,175,70,38,137]},"announce":[],"urlList":[]}}